<svg width="25" height="25" viewBox="0 0 25 25" fill="none" xmlns="http://www.w3.org/2000/svg">
<g clip-path="url(#clip0_796_2556)">
<path d="M10.4165 5.20833C10.4165 4.6558 10.636 4.12589 11.0267 3.73519C11.4174 3.34449 11.9473 3.125 12.4998 3.125C13.0524 3.125 13.5823 3.34449 13.973 3.73519C14.3637 4.12589 14.5832 4.6558 14.5832 5.20833C15.7794 5.77399 16.7992 6.65451 17.5332 7.75552C18.2672 8.85653 18.6878 10.1365 18.7498 11.4583V14.5833C18.8282 15.2309 19.0576 15.8511 19.4194 16.3939C19.7813 16.9367 20.2655 17.3869 20.8332 17.7083H4.1665C4.73415 17.3869 5.21839 16.9367 5.58024 16.3939C5.94209 15.8511 6.17145 15.2309 6.24984 14.5833V11.4583C6.31188 10.1365 6.73244 8.85653 7.46645 7.75552C8.20046 6.65451 9.22024 5.77399 10.4165 5.20833Z" stroke="#FF4168" stroke-width="2.4375" stroke-linecap="round" stroke-linejoin="round"/>
<path d="M9.375 17.7083V18.7499C9.375 19.5787 9.70424 20.3736 10.2903 20.9596C10.8763 21.5457 11.6712 21.8749 12.5 21.8749C13.3288 21.8749 14.1237 21.5457 14.7097 20.9596C15.2958 20.3736 15.625 19.5787 15.625 18.7499V17.7083" stroke="#FF4168" stroke-width="2.4375" stroke-linecap="round" stroke-linejoin="round"/>
</g>
<defs>
<clipPath id="clip0_796_2556">
<rect width="25" height="25" fill="white"/>
</clipPath>
</defs>
</svg>
