<svg width="31" height="31" viewBox="0 0 31 31" fill="none" xmlns="http://www.w3.org/2000/svg">
<path d="M24.5413 9.04159C24.5413 7.62075 23.3788 6.45825 21.958 6.45825H19.3747C18.6643 6.45825 18.083 7.0395 18.083 7.74992C18.083 8.46034 18.6643 9.04159 19.3747 9.04159H21.958V12.4645L17.463 18.0833H12.9163V12.9166C12.9163 12.2062 12.3351 11.6249 11.6247 11.6249H7.74967C4.89509 11.6249 2.58301 13.937 2.58301 16.7916V19.3749C2.58301 20.0853 3.16426 20.6666 3.87467 20.6666H5.16634C5.16634 22.8108 6.89717 24.5416 9.04134 24.5416C11.1855 24.5416 12.9163 22.8108 12.9163 20.6666H17.463C18.2509 20.6666 18.9872 20.3049 19.478 19.6978L23.973 14.0791C24.3476 13.6141 24.5413 13.0458 24.5413 12.4645V9.04159ZM9.04134 21.9583C8.33092 21.9583 7.74967 21.377 7.74967 20.6666H10.333C10.333 21.377 9.75176 21.9583 9.04134 21.9583Z" fill="white"/>
<path d="M7.74967 7.75H11.6247C12.3351 7.75 12.9163 8.33125 12.9163 9.04167C12.9163 9.75208 12.3351 10.3333 11.6247 10.3333H7.74967C7.03926 10.3333 6.45801 9.75208 6.45801 9.04167C6.45801 8.33125 7.03926 7.75 7.74967 7.75ZM24.5413 16.7917C22.3972 16.7917 20.6663 18.5225 20.6663 20.6667C20.6663 22.8108 22.3972 24.5417 24.5413 24.5417C26.6855 24.5417 28.4163 22.8108 28.4163 20.6667C28.4163 18.5225 26.6855 16.7917 24.5413 16.7917ZM24.5413 21.9583C23.8309 21.9583 23.2497 21.3771 23.2497 20.6667C23.2497 19.9563 23.8309 19.375 24.5413 19.375C25.2518 19.375 25.833 19.9563 25.833 20.6667C25.833 21.3771 25.2518 21.9583 24.5413 21.9583Z" fill="white"/>
</svg>
