<svg width="9" height="9" viewBox="0 0 9 9" fill="none" xmlns="http://www.w3.org/2000/svg">
<g clip-path="url(#clip0_485_1068)">
<path d="M2.35598 2.99295H2.6868C2.86228 2.99295 3.03057 2.92324 3.15465 2.79916C3.27873 2.67508 3.34844 2.50679 3.34844 2.33131C3.34844 2.24357 3.38329 2.15942 3.44533 2.09738C3.50738 2.03534 3.59152 2.00049 3.67926 2.00049H5.66418C5.75192 2.00049 5.83607 2.03534 5.89811 2.09738C5.96015 2.15942 5.995 2.24357 5.995 2.33131C5.995 2.50679 6.06471 2.67508 6.1888 2.79916C6.31288 2.92324 6.48117 2.99295 6.65665 2.99295H6.98747C7.16295 2.99295 7.33124 3.06266 7.45532 3.18674C7.5794 3.31082 7.64911 3.47911 7.64911 3.65459V6.63198C7.64911 6.80746 7.5794 6.97575 7.45532 7.09983C7.33124 7.22391 7.16295 7.29362 6.98747 7.29362H2.35598C2.1805 7.29362 2.01221 7.22391 1.88813 7.09983C1.76404 6.97575 1.69434 6.80746 1.69434 6.63198V3.65459C1.69434 3.47911 1.76404 3.31082 1.88813 3.18674C2.01221 3.06266 2.1805 2.99295 2.35598 2.99295Z" stroke="white" stroke-width="0.496231" stroke-linecap="round" stroke-linejoin="round"/>
<path d="M4.67166 5.97076C5.21978 5.97076 5.66412 5.52642 5.66412 4.9783C5.66412 4.43018 5.21978 3.98584 4.67166 3.98584C4.12354 3.98584 3.6792 4.43018 3.6792 4.9783C3.6792 5.52642 4.12354 5.97076 4.67166 5.97076Z" stroke="white" stroke-width="0.496231" stroke-linecap="round" stroke-linejoin="round"/>
</g>
<defs>
<clipPath id="clip0_485_1068">
<rect width="7.9397" height="7.9397" fill="white" transform="translate(0.70166 0.678223)"/>
</clipPath>
</defs>
</svg>
