<svg width="18" height="16" viewBox="0 0 18 16" fill="none" xmlns="http://www.w3.org/2000/svg">
<path d="M12.3333 4.66683C12.3333 2.82588 10.8409 1.3335 9 1.3335C7.15905 1.3335 5.66667 2.82588 5.66667 4.66683M16.5 7.33346V12.0001C16.5 12.9335 16.5002 13.4003 16.3185 13.7569C16.1587 14.0705 15.9034 14.3254 15.5898 14.4851C15.2333 14.6668 14.7669 14.6668 13.8335 14.6668H4.16683C3.23341 14.6668 2.76635 14.6668 2.40983 14.4851C2.09623 14.3254 1.84144 14.0705 1.68166 13.7569C1.5 13.4003 1.5 12.9335 1.5 12.0001V7.33346C1.5 6.40003 1.5 5.93338 1.68166 5.57686C1.84144 5.26326 2.09623 5.00827 2.40983 4.84849C2.76635 4.66683 3.23341 4.66683 4.16683 4.66683H13.8335C14.7669 4.66683 15.2333 4.66683 15.5898 4.84849C15.9034 5.00827 16.1587 5.26326 16.3185 5.57686C16.5002 5.93338 16.5 6.40003 16.5 7.33346Z" stroke="url(#paint0_linear_21_11775)" stroke-width="2" stroke-linecap="round" stroke-linejoin="round"/>
<defs>
<linearGradient id="paint0_linear_21_11775" x1="9" y1="1.3335" x2="9" y2="14.6668" gradientUnits="userSpaceOnUse">
<stop stop-color="#FFBBC9"/>
<stop offset="0.0001" stop-color="#FD664C"/>
<stop offset="0.980387" stop-color="#F38B2A"/>
</linearGradient>
</defs>
</svg>
