<svg width="49" height="48" viewBox="0 0 49 48" fill="none" xmlns="http://www.w3.org/2000/svg">
<g clip-path="url(#clip0_2346_30528)">
<path d="M33.5 20C39.576 20 44.5 24.03 44.5 29C44.5 31.794 42.944 34.29 40.5 35.94V40L36.572 37.644C35.5653 37.8817 34.5344 38.0012 33.5 38C27.424 38 22.5 33.97 22.5 29C22.5 24.03 27.424 20 33.5 20Z" stroke="#FFE8D2" stroke-width="2" stroke-linecap="round" stroke-linejoin="round"/>
<path d="M22.894 31.396C21.514 31.788 20.034 32 18.5 32C16.7228 32.0038 14.9573 31.7118 13.276 31.136L8.5 34V28.398C6.026 26.234 4.5 23.27 4.5 20C4.5 13.372 10.768 8 18.5 8C26.064 8 32.226 13.14 32.5 19.57V20.036" stroke="#FFE8D2" stroke-width="2" stroke-linecap="round" stroke-linejoin="round"/>
<path d="M20.5 16H20.52" stroke="#FFE8D2" stroke-width="2" stroke-linecap="round" stroke-linejoin="round"/>
<path d="M14.5 16H14.52" stroke="#FFE8D2" stroke-width="2" stroke-linecap="round" stroke-linejoin="round"/>
<path d="M30.5 28H30.52" stroke="#FFE8D2" stroke-width="2" stroke-linecap="round" stroke-linejoin="round"/>
<path d="M36.5 28H36.52" stroke="#FFE8D2" stroke-width="2" stroke-linecap="round" stroke-linejoin="round"/>
</g>
<defs>
<clipPath id="clip0_2346_30528">
<rect width="48" height="48" fill="white" transform="translate(0.5)"/>
</clipPath>
</defs>
</svg>
