<svg width="21" height="22" viewBox="0 0 21 22" fill="none" xmlns="http://www.w3.org/2000/svg">
<path d="M15.3837 15.6899C15.3837 15.6899 15.4502 15.6424 15.5565 15.5612C17.1492 14.3297 18.1473 12.5452 18.1473 10.5585C18.1473 6.85469 14.6647 3.84912 10.3715 3.84912C6.07661 3.84912 2.59229 6.85469 2.59229 10.5585C2.59229 14.2641 6.07488 17.1659 10.3698 17.1659C10.7362 17.1659 11.3377 17.1417 12.1742 17.0933C13.2647 17.802 14.8565 18.3835 16.2496 18.3835C16.6808 18.3835 16.8839 18.0292 16.6073 17.668C16.1874 17.153 15.6084 16.3286 15.3837 15.6899Z" stroke="#FF4168" stroke-width="1.5" stroke-linecap="round" stroke-linejoin="round"/>
<path d="M6.48145 12.4126C8.64186 14.573 12.0985 14.573 14.2589 12.4126" stroke="#FF4168" stroke-width="1.5" stroke-linecap="round" stroke-linejoin="round"/>
</svg>
