<svg width="13" height="15" viewBox="0 0 13 15" fill="none" xmlns="http://www.w3.org/2000/svg">
<path d="M7.91671 6.08333V11.0417M5.08337 6.08333L5.08337 11.0417M0.833374 3.25H12.1667M10.75 3.25V11.6083C10.75 12.4017 10.7502 12.7985 10.5958 13.1015C10.46 13.3681 10.243 13.5847 9.97639 13.7206C9.67335 13.875 9.27692 13.875 8.48351 13.875H4.51685C3.72344 13.875 3.32644 13.875 3.0234 13.7206C2.75683 13.5847 2.54027 13.3681 2.40445 13.1015C2.25004 12.7985 2.25004 12.4017 2.25004 11.6083V3.25H10.75ZM9.33337 3.25H3.66671C3.66671 2.58992 3.66671 2.25986 3.77454 1.99952C3.91833 1.6524 4.19393 1.37662 4.54106 1.23284C4.8014 1.125 5.13162 1.125 5.79171 1.125H7.20837C7.86846 1.125 8.1985 1.125 8.45884 1.23284C8.80597 1.37662 9.08168 1.6524 9.22546 1.99952C9.3333 2.25986 9.33337 2.58992 9.33337 3.25Z" stroke="white" stroke-linecap="round" stroke-linejoin="round"/>
</svg>
