<svg width="33" height="33" viewBox="0 0 33 33" fill="none" xmlns="http://www.w3.org/2000/svg">
<g clip-path="url(#clip0_864_4811)">
<path d="M24.919 8.25006H24.6731H24.919ZM24.919 8.25006L24.9238 9.28131M24.919 8.25006L24.6731 9.28131H24.9238M24.9238 9.28131V8.25006L26.4659 10.7032L26.4655 10.6988C26.4652 10.6954 26.4649 10.692 26.4646 10.6886C26.4316 10.3053 26.2562 9.94806 25.9728 9.68749C25.9722 9.68693 25.9716 9.68638 25.971 9.68582C25.6866 9.42522 25.3148 9.28088 24.9292 9.2813C24.9274 9.2813 24.9256 9.28131 24.9238 9.28131ZM8.28135 28.5098L8.4748 28.2813L8.28135 28.5098Z" fill="white" stroke="white" stroke-width="5"/>
</g>
<defs>
<clipPath id="clip0_864_4811">
<rect width="33" height="33" fill="white"/>
</clipPath>
</defs>
</svg>
