<svg width="16" height="14" viewBox="0 0 16 14" fill="none" xmlns="http://www.w3.org/2000/svg">
<path d="M9.99999 0.333496H3.99999C3.44666 0.333496 2.97332 0.666829 2.77332 1.14683L0.75999 5.84683C0.69999 6.00016 0.666656 6.16016 0.666656 6.3335V7.66683C0.666656 8.40016 1.26666 9.00016 1.99999 9.00016H6.20666L5.57332 12.0468L5.55332 12.2602C5.55332 12.5335 5.66666 12.7868 5.84666 12.9668L6.55332 13.6668L10.9467 9.2735C11.1867 9.0335 11.3333 8.70016 11.3333 8.3335V1.66683C11.3333 0.933496 10.7333 0.333496 9.99999 0.333496ZM9.99999 8.3335L7.10666 11.2268L7.99999 7.66683H1.99999V6.3335L3.99999 1.66683H9.99999V8.3335ZM12.6667 0.333496H15.3333V8.3335H12.6667V0.333496Z" fill="#363C4F"/>
</svg>
