<svg width="13" height="13" viewBox="0 0 13 13" fill="none" xmlns="http://www.w3.org/2000/svg">
<path fill-rule="evenodd" clip-rule="evenodd" d="M3.5 0.327148C2.70435 0.327148 1.94129 0.643219 1.37868 1.20583C0.81607 1.76844 0.5 2.5315 0.5 3.32715V9.32715C0.5 10.1228 0.81607 10.8859 1.37868 11.4485C1.94129 12.0111 2.70435 12.3271 3.5 12.3271H9.5C10.2956 12.3271 11.0587 12.0111 11.6213 11.4485C12.1839 10.8859 12.5 10.1228 12.5 9.32715V3.32715C12.5 2.5315 12.1839 1.76844 11.6213 1.20583C11.0587 0.643219 10.2956 0.327148 9.5 0.327148H3.5ZM8.738 5.53755C8.79189 5.48003 8.83393 5.41246 8.86171 5.33869C8.88949 5.26493 8.90247 5.18641 8.89991 5.10763C8.89735 5.02885 8.87929 4.95135 8.84678 4.87954C8.81426 4.80774 8.76792 4.74304 8.7104 4.68915C8.65288 4.63525 8.58531 4.59322 8.51155 4.56544C8.43778 4.53766 8.35926 4.52468 8.28048 4.52724C8.2017 4.5298 8.1242 4.54786 8.05239 4.58037C7.98059 4.61289 7.91589 4.65923 7.862 4.71675L6.0122 6.69075L5.0984 5.87895C4.97867 5.77942 4.82495 5.73033 4.6697 5.74204C4.51445 5.75375 4.36983 5.82535 4.26639 5.94172C4.16296 6.05809 4.1088 6.2101 4.11537 6.36566C4.12194 6.52121 4.18872 6.66812 4.3016 6.77535L5.6516 7.97535C5.76841 8.07911 5.92109 8.13321 6.07718 8.12616C6.23326 8.1191 6.38043 8.05143 6.4874 7.93755L8.738 5.53755Z" fill="#FF4168"/>
</svg>
