<svg width="27" height="27" viewBox="0 0 27 27" fill="none" xmlns="http://www.w3.org/2000/svg">
<path d="M15.5908 3.34106V7.79561C15.5908 8.09096 15.7081 8.37422 15.917 8.58307C16.1258 8.79192 16.4091 8.90925 16.7045 8.90925H21.159" stroke="black" stroke-width="1.67045" stroke-linecap="round" stroke-linejoin="round"/>
<path d="M18.932 23.3865H7.79563C7.20492 23.3865 6.63841 23.1519 6.22071 22.7342C5.80302 22.3165 5.56836 21.75 5.56836 21.1592V5.56834C5.56836 4.97763 5.80302 4.41111 6.22071 3.99342C6.63841 3.57572 7.20492 3.34106 7.79563 3.34106H15.5911L21.1593 8.90925V21.1592C21.1593 21.75 20.9246 22.3165 20.5069 22.7342C20.0892 23.1519 19.5227 23.3865 18.932 23.3865Z" stroke="black" stroke-width="1.67045" stroke-linecap="round" stroke-linejoin="round"/>
<path d="M13.3633 12.2502V18.9321" stroke="black" stroke-width="1.67045" stroke-linecap="round" stroke-linejoin="round"/>
<path d="M10.0225 15.5911L13.3634 18.932L16.7043 15.5911" stroke="black" stroke-width="1.67045" stroke-linecap="round" stroke-linejoin="round"/>
</svg>
