<svg width="20" height="20" viewBox="0 0 20 20" fill="none" xmlns="http://www.w3.org/2000/svg">
<path d="M3.33333 5.67253L10.1905 10.4225L16.6666 5.67253M17.5 7.41415V13.4308C17.5 14.3176 17.5002 14.761 17.3185 15.0997C17.1587 15.3976 16.9034 15.6398 16.5898 15.7916C16.2333 15.9642 15.7669 15.9642 14.8335 15.9642H5.16683C4.23341 15.9642 3.76635 15.9642 3.40983 15.7916C3.09623 15.6398 2.84144 15.3976 2.68166 15.0997C2.5 14.761 2.5 14.3176 2.5 13.4308V7.41415C2.5 6.5274 2.5 6.08409 2.68166 5.74539C2.84144 5.44747 3.09623 5.20523 3.40983 5.05343C3.76635 4.88086 4.23341 4.88086 5.16683 4.88086H14.8335C15.7669 4.88086 16.2333 4.88086 16.5898 5.05343C16.9034 5.20523 17.1587 5.44747 17.3185 5.74539C17.5002 6.08409 17.5 6.5274 17.5 7.41415Z" stroke="white" stroke-linecap="round" stroke-linejoin="round"/>
</svg>
