<svg width="18" height="18" viewBox="0 0 18 18" fill="none" xmlns="http://www.w3.org/2000/svg">
<path d="M14.0609 3.63232H4.32744C3.77427 3.63232 3.24375 3.85207 2.8526 4.24322C2.46145 4.63438 2.2417 5.16489 2.2417 5.71806V12.6705C2.2417 13.2237 2.46145 13.7542 2.8526 14.1454C3.24375 14.5365 3.77427 14.7563 4.32744 14.7563H14.0609C14.6141 14.7563 15.1446 14.5365 15.5357 14.1454C15.9269 13.7542 16.1466 13.2237 16.1466 12.6705V5.71806C16.1466 5.16489 15.9269 4.63438 15.5357 4.24322C15.1446 3.85207 14.6141 3.63232 14.0609 3.63232ZM14.0609 5.02282L9.54179 8.13057C9.43609 8.19159 9.3162 8.22371 9.19416 8.22371C9.07212 8.22371 8.95223 8.19159 8.84654 8.13057L4.32744 5.02282H14.0609Z" fill="#534F4F"/>
</svg>
