<svg width="20" height="14" viewBox="0 0 20 14" fill="none" xmlns="http://www.w3.org/2000/svg">
<path d="M1.58692 8.68781C3.36636 10.4568 6.46965 12.9089 10.0003 12.9089C13.531 12.9089 16.634 10.4568 18.4134 8.68781L18.4142 8.68698C18.8833 8.22061 19.1182 7.98716 19.2676 7.52917C19.3742 7.20234 19.3742 6.61553 19.2676 6.28869C19.1182 5.83069 18.8833 5.59721 18.4142 5.1308L18.4134 5.13004C16.634 3.36102 13.531 0.908936 10.0003 0.908936C6.46965 0.908936 3.36636 3.36102 1.58692 5.13004C1.11726 5.59696 0.882408 5.83044 0.732918 6.28869C0.626299 6.61553 0.626299 7.20234 0.732918 7.52917C0.882401 7.98741 1.11724 8.22087 1.58686 8.68774L1.58692 8.68781Z" stroke="#534F4F" stroke-opacity="0.4" stroke-linecap="round" stroke-linejoin="round"/>
</svg>
