<svg width="21" height="21" viewBox="0 0 21 21" fill="none" xmlns="http://www.w3.org/2000/svg">
<path d="M16.851 11.7285L10.3698 18.1476L3.88854 11.7285C3.46104 11.3125 3.1243 10.8125 2.89954 10.26C2.67477 9.70747 2.56685 9.11438 2.58255 8.51809C2.59826 7.9218 2.73726 7.33522 2.9908 6.79529C3.24434 6.25536 3.60693 5.77378 4.05574 5.38086C4.50455 4.98795 5.02985 4.69222 5.59856 4.51229C6.16727 4.33236 6.76708 4.27214 7.36021 4.33541C7.95334 4.39868 8.52695 4.58408 9.04491 4.87993C9.56287 5.17577 10.014 5.57566 10.3698 6.05441C10.7271 5.57914 11.1788 5.18274 11.6964 4.89004C12.214 4.59733 12.7864 4.41461 13.3779 4.35332C13.9694 4.29202 14.5671 4.35347 15.1337 4.53382C15.7004 4.71416 16.2237 5.00952 16.6709 5.40142C17.1181 5.79331 17.4797 6.27329 17.7328 6.81133C17.986 7.34937 18.1255 7.93387 18.1424 8.52827C18.1593 9.12266 18.0533 9.71415 17.8311 10.2657C17.6089 10.8173 17.2753 11.317 16.851 11.7337" stroke="#FD0061" stroke-width="1.75" stroke-linecap="round" stroke-linejoin="round"/>
</svg>
