<svg width="20" height="20" viewBox="0 0 20 20" fill="none" xmlns="http://www.w3.org/2000/svg">
<path d="M1 10.5781H19V9.57812H1V10.5781ZM10 18.5781C5.30558 18.5781 1.5 14.7725 1.5 10.0781H0.5C0.5 15.3248 4.75329 19.5781 10 19.5781V18.5781ZM1.5 10.0781C1.5 5.3837 5.30558 1.57812 10 1.57812V0.578125C4.75329 0.578125 0.5 4.83142 0.5 10.0781H1.5ZM10 1.57812C14.6944 1.57812 18.5 5.3837 18.5 10.0781H19.5C19.5 4.83142 15.2467 0.578125 10 0.578125V1.57812ZM18.5 10.0781C18.5 14.7725 14.6944 18.5781 10 18.5781V19.5781C15.2467 19.5781 19.5 15.3248 19.5 10.0781H18.5ZM10 18.5781C9.61041 18.5781 9.20161 18.4026 8.78771 18.0087C8.37124 17.6123 7.97343 17.0152 7.62848 16.239C6.93913 14.688 6.5 12.5102 6.5 10.0781H5.5C5.5 12.6166 5.9563 14.9388 6.71467 16.6452C7.09357 17.4977 7.55769 18.2186 8.09833 18.7331C8.64154 19.25 9.28502 19.5781 10 19.5781V18.5781ZM6.5 10.0781C6.5 7.64606 6.93913 5.46827 7.62848 3.91723C7.97343 3.14108 8.37124 2.54393 8.78771 2.14759C9.20161 1.75369 9.61041 1.57812 10 1.57812V0.578125C9.28502 0.578125 8.64154 0.906235 8.09833 1.42319C7.55769 1.9377 7.09357 2.65857 6.71467 3.51109C5.9563 5.21741 5.5 7.53963 5.5 10.0781H6.5ZM10 1.57812C10.3896 1.57812 10.7984 1.75369 11.2123 2.14759C11.6288 2.54393 12.0266 3.14108 12.3715 3.91723C13.0609 5.46827 13.5 7.64606 13.5 10.0781H14.5C14.5 7.53963 14.0437 5.21741 13.2853 3.51109C12.9064 2.65857 12.4423 1.9377 11.9017 1.42319C11.3585 0.906235 10.715 0.578125 10 0.578125V1.57812ZM13.5 10.0781C13.5 12.5102 13.0609 14.688 12.3715 16.239C12.0266 17.0152 11.6288 17.6123 11.2123 18.0087C10.7984 18.4026 10.3896 18.5781 10 18.5781V19.5781C10.715 19.5781 11.3585 19.25 11.9017 18.7331C12.4423 18.2186 12.9064 17.4977 13.2853 16.6452C14.0437 14.9388 14.5 12.6166 14.5 10.0781H13.5Z" fill="white"/>
</svg>
