<svg width="25" height="29" viewBox="0 0 25 29" fill="none" xmlns="http://www.w3.org/2000/svg">
<g clip-path="url(#clip0_326_1262)" filter="url(#filter0_dd_326_1262)">
<path d="M12.8815 12.6948C14.3839 12.6948 15.6018 11.4769 15.6018 9.97449C15.6018 8.47209 14.3839 7.25415 12.8815 7.25415C11.3791 7.25415 10.1611 8.47209 10.1611 9.97449C10.1611 11.4769 11.3791 12.6948 12.8815 12.6948Z" stroke="#676262" stroke-width="1.36017" stroke-linecap="round" stroke-linejoin="round"/>
<path d="M18.0108 15.1041L14.1634 18.9515C13.8233 19.2913 13.3623 19.4821 12.8816 19.4821C12.401 19.4821 11.94 19.2913 11.5999 18.9515L7.75154 15.1041C6.73706 14.0895 6.04619 12.797 5.76632 11.3898C5.48644 9.98262 5.63012 8.52405 6.17919 7.19853C6.72826 5.87302 7.65805 4.74008 8.85099 3.94299C10.0439 3.1459 11.4465 2.72046 12.8812 2.72046C14.3159 2.72046 15.7184 3.1459 16.9114 3.94299C18.1043 4.74008 19.0341 5.87302 19.5832 7.19853C20.1323 8.52405 20.2759 9.98262 19.9961 11.3898C19.7162 12.797 19.0253 14.0895 18.0108 15.1041Z" stroke="#676262" stroke-width="1.36017" stroke-linecap="round" stroke-linejoin="round"/>
</g>
<defs>
<filter id="filter0_dd_326_1262" x="-2" y="0" width="29.7627" height="29.7627" filterUnits="userSpaceOnUse" color-interpolation-filters="sRGB">
<feFlood flood-opacity="0" result="BackgroundImageFix"/>
<feColorMatrix in="SourceAlpha" type="matrix" values="0 0 0 0 0 0 0 0 0 0 0 0 0 0 0 0 0 0 127 0" result="hardAlpha"/>
<feOffset dy="4"/>
<feGaussianBlur stdDeviation="2"/>
<feComposite in2="hardAlpha" operator="out"/>
<feColorMatrix type="matrix" values="0 0 0 0 0 0 0 0 0 0 0 0 0 0 0 0 0 0 0.25 0"/>
<feBlend mode="normal" in2="BackgroundImageFix" result="effect1_dropShadow_326_1262"/>
<feColorMatrix in="SourceAlpha" type="matrix" values="0 0 0 0 0 0 0 0 0 0 0 0 0 0 0 0 0 0 127 0" result="hardAlpha"/>
<feOffset dy="4"/>
<feGaussianBlur stdDeviation="2"/>
<feComposite in2="hardAlpha" operator="out"/>
<feColorMatrix type="matrix" values="0 0 0 0 0 0 0 0 0 0 0 0 0 0 0 0 0 0 0.25 0"/>
<feBlend mode="normal" in2="effect1_dropShadow_326_1262" result="effect2_dropShadow_326_1262"/>
<feBlend mode="normal" in="SourceGraphic" in2="effect2_dropShadow_326_1262" result="shape"/>
</filter>
<clipPath id="clip0_326_1262">
<rect width="21.7627" height="21.7627" fill="white" transform="translate(2)"/>
</clipPath>
</defs>
</svg>
