<svg width="40" height="40" viewBox="0 0 40 40" fill="none" xmlns="http://www.w3.org/2000/svg">
<g clip-path="url(#clip0_2426_3766)">
<path d="M20 13.3335V20.0002L23.3333 23.3335" stroke="#FF4168" stroke-width="2.5" stroke-linecap="round" stroke-linejoin="round"/>
<path d="M5.08301 18.3334C5.45649 14.6669 7.16678 11.2661 9.88756 8.78006C12.6083 6.29398 16.1492 4.89659 19.8345 4.85449C23.5198 4.8124 27.0916 6.12855 29.8684 8.55184C32.6453 10.9751 34.4328 14.3359 34.89 17.993C35.3471 21.6501 34.4418 25.3475 32.3469 28.3797C30.252 31.412 27.1141 33.5668 23.5318 34.4332C19.9495 35.2996 16.1737 34.8167 12.9247 33.0769C9.67564 31.337 7.18088 28.4619 5.91634 25.0001M5.08301 33.3334V25.0001H13.4163" stroke="#FF4168" stroke-width="2.5" stroke-linecap="round" stroke-linejoin="round"/>
</g>
<defs>
<clipPath id="clip0_2426_3766">
<rect width="40" height="40" fill="white"/>
</clipPath>
</defs>
</svg>
