<svg width="21" height="21" viewBox="0 0 21 21" fill="none" xmlns="http://www.w3.org/2000/svg">
<path d="M2.59229 18.1475H18.1473" stroke="white" stroke-width="1.5" stroke-linecap="round" stroke-linejoin="round"/>
<path d="M2.59229 6.04895V6.91312C2.59229 7.60069 2.86542 8.26011 3.35161 8.74629C3.8378 9.23248 4.49721 9.50562 5.18479 9.50562C5.87236 9.50562 6.53177 9.23248 7.01796 8.74629C7.50415 8.26011 7.77729 7.60069 7.77729 6.91312M2.59229 6.04895H18.1473M2.59229 6.04895L4.32062 2.59229H16.419L18.1473 6.04895M7.77729 6.91312V6.04895M7.77729 6.91312C7.77729 7.60069 8.05042 8.26011 8.53661 8.74629C9.0228 9.23248 9.68221 9.50562 10.3698 9.50562C11.0574 9.50562 11.7168 9.23248 12.203 8.74629C12.6891 8.26011 12.9623 7.60069 12.9623 6.91312M12.9623 6.91312V6.04895M12.9623 6.91312C12.9623 7.60069 13.2354 8.26011 13.7216 8.74629C14.2078 9.23248 14.8672 9.50562 15.5548 9.50562C16.2424 9.50562 16.9018 9.23248 17.388 8.74629C17.8741 8.26011 18.1473 7.60069 18.1473 6.91312V6.04895" stroke="white" stroke-width="1.5" stroke-linecap="round" stroke-linejoin="round"/>
<path d="M4.3208 18.1473V9.37598" stroke="white" stroke-width="1.5" stroke-linecap="round" stroke-linejoin="round"/>
<path d="M16.4189 18.1473V9.37598" stroke="white" stroke-width="1.5" stroke-linecap="round" stroke-linejoin="round"/>
<path d="M7.77734 18.1474V14.6907C7.77734 14.2324 7.95944 13.7927 8.28356 13.4686C8.60769 13.1445 9.04729 12.9624 9.50568 12.9624H11.234C11.6924 12.9624 12.132 13.1445 12.4561 13.4686C12.7803 13.7927 12.9623 14.2324 12.9623 14.6907V18.1474" stroke="white" stroke-width="1.5" stroke-linecap="round" stroke-linejoin="round"/>
</svg>
