<svg width="18" height="18" viewBox="0 0 18 18" fill="none" xmlns="http://www.w3.org/2000/svg">
<path d="M15.3 4.05C15.3 4.79558 14.6956 5.4 13.95 5.4C13.2044 5.4 12.6 4.79558 12.6 4.05C12.6 3.30442 13.2044 2.7 13.95 2.7C14.6956 2.7 15.3 3.30442 15.3 4.05Z" fill="white"/>
<path fill-rule="evenodd" clip-rule="evenodd" d="M9 13.5C11.4853 13.5 13.5 11.4853 13.5 9C13.5 6.51472 11.4853 4.5 9 4.5C6.51472 4.5 4.5 6.51472 4.5 9C4.5 11.4853 6.51472 13.5 9 13.5ZM9 11.7C10.4912 11.7 11.7 10.4912 11.7 9C11.7 7.50883 10.4912 6.3 9 6.3C7.50883 6.3 6.3 7.50883 6.3 9C6.3 10.4912 7.50883 11.7 9 11.7Z" fill="white"/>
<path fill-rule="evenodd" clip-rule="evenodd" d="M0 8.64C0 5.61572 0 4.10357 0.588565 2.94845C1.10628 1.93238 1.93238 1.10628 2.94845 0.588565C4.10357 0 5.61572 0 8.64 0H9.36C12.3843 0 13.8964 0 15.0515 0.588565C16.0676 1.10628 16.8937 1.93238 17.4114 2.94845C18 4.10357 18 5.61572 18 8.64V9.36C18 12.3843 18 13.8964 17.4114 15.0515C16.8937 16.0676 16.0676 16.8937 15.0515 17.4114C13.8964 18 12.3843 18 9.36 18H8.64C5.61572 18 4.10357 18 2.94845 17.4114C1.93238 16.8937 1.10628 16.0676 0.588565 15.0515C0 13.8964 0 12.3843 0 9.36V8.64ZM8.64 1.8H9.36C10.9018 1.8 11.95 1.8014 12.7601 1.86759C13.5493 1.93207 13.9528 2.04894 14.2344 2.19238C14.9117 2.53752 15.4625 3.08825 15.8076 3.76563C15.9511 4.04715 16.0679 4.45072 16.1324 5.23987C16.1986 6.05003 16.2 7.09816 16.2 8.64V9.36C16.2 10.9018 16.1986 11.95 16.1324 12.7601C16.0679 13.5493 15.9511 13.9528 15.8076 14.2344C15.4625 14.9117 14.9117 15.4625 14.2344 15.8076C13.9528 15.9511 13.5493 16.0679 12.7601 16.1324C11.95 16.1986 10.9018 16.2 9.36 16.2H8.64C7.09816 16.2 6.05003 16.1986 5.23987 16.1324C4.45072 16.0679 4.04715 15.9511 3.76563 15.8076C3.08825 15.4625 2.53752 14.9117 2.19238 14.2344C2.04894 13.9528 1.93207 13.5493 1.86759 12.7601C1.8014 11.95 1.8 10.9018 1.8 9.36V8.64C1.8 7.09816 1.8014 6.05003 1.86759 5.23987C1.93207 4.45072 2.04894 4.04715 2.19238 3.76563C2.53752 3.08825 3.08825 2.53752 3.76563 2.19238C4.04715 2.04894 4.45072 1.93207 5.23987 1.86759C6.05003 1.8014 7.09816 1.8 8.64 1.8Z" fill="white"/>
</svg>
