<svg width="29" height="28" viewBox="0 0 29 28" fill="none" xmlns="http://www.w3.org/2000/svg">
<path d="M27.3612 0.853681C26.669 0.143292 25.6446 -0.121363 24.6895 0.157221L2.41601 6.6343C1.40824 6.91427 0.693935 7.71799 0.501517 8.739C0.304946 9.77812 0.991561 11.0972 1.88859 11.6488L8.85302 15.9293C9.56732 16.368 10.4893 16.258 11.0804 15.6618L19.0553 7.6372C19.4568 7.21932 20.1212 7.21932 20.5227 7.6372C20.9241 8.04115 20.9241 8.69582 20.5227 9.1137L12.5339 17.1397C11.9414 17.7345 11.8307 18.6608 12.2667 19.3795L16.5221 26.4138C17.0204 27.2495 17.8787 27.7231 18.82 27.7231C18.9307 27.7231 19.0553 27.7231 19.1661 27.7092C20.2458 27.5699 21.1041 26.8316 21.4225 25.7869L28.0256 3.54202C28.3163 2.59483 28.0533 1.56407 27.3612 0.853681Z" fill="white"/>
</svg>
