<svg width="28" height="29" viewBox="0 0 28 29" fill="none" xmlns="http://www.w3.org/2000/svg">
<path d="M19.833 12.9036H8.16634C6.87768 12.9036 5.83301 13.9482 5.83301 15.2369V22.2369C5.83301 23.5256 6.87768 24.5702 8.16634 24.5702H19.833C21.1217 24.5702 22.1663 23.5256 22.1663 22.2369V15.2369C22.1663 13.9482 21.1217 12.9036 19.833 12.9036Z" stroke="#676262" stroke-width="2.5" stroke-linecap="round" stroke-linejoin="round"/>
<path d="M13.9997 19.9036C14.644 19.9036 15.1663 19.3813 15.1663 18.737C15.1663 18.0926 14.644 17.5703 13.9997 17.5703C13.3553 17.5703 12.833 18.0926 12.833 18.737C12.833 19.3813 13.3553 19.9036 13.9997 19.9036Z" stroke="#676262" stroke-width="2.5" stroke-linecap="round" stroke-linejoin="round"/>
<path d="M9.33301 12.9036V8.23698C9.33301 6.9993 9.82467 5.81232 10.6998 4.93715C11.575 4.06198 12.762 3.57031 13.9997 3.57031C15.2374 3.57031 16.4243 4.06198 17.2995 4.93715C18.1747 5.81232 18.6663 6.9993 18.6663 8.23698V12.9036" stroke="#676262" stroke-width="2.5" stroke-linecap="round" stroke-linejoin="round"/>
</svg>
