<svg width="28" height="28" viewBox="0 0 28 28" fill="none" xmlns="http://www.w3.org/2000/svg">
<g clip-path="url(#clip0_796_2432)">
<path d="M19.833 12.8333H8.16634C6.87768 12.8333 5.83301 13.8779 5.83301 15.1666V22.1666C5.83301 23.4552 6.87768 24.4999 8.16634 24.4999H19.833C21.1217 24.4999 22.1663 23.4552 22.1663 22.1666V15.1666C22.1663 13.8779 21.1217 12.8333 19.833 12.8333Z" stroke="#676262" stroke-width="2.5" stroke-linecap="round" stroke-linejoin="round"/>
<path d="M13.9997 19.8333C14.644 19.8333 15.1663 19.311 15.1663 18.6667C15.1663 18.0223 14.644 17.5 13.9997 17.5C13.3553 17.5 12.833 18.0223 12.833 18.6667C12.833 19.311 13.3553 19.8333 13.9997 19.8333Z" stroke="#676262" stroke-width="2.5" stroke-linecap="round" stroke-linejoin="round"/>
<path d="M9.33301 12.8333V6.99992C9.33301 5.76224 9.82467 4.57526 10.6998 3.70009C11.575 2.82492 12.762 2.33325 13.9997 2.33325C15.2374 2.33325 16.4243 2.82492 17.2995 3.70009C18.1747 4.57526 18.6663 5.76224 18.6663 6.99992" stroke="#676262" stroke-width="2.5" stroke-linecap="round" stroke-linejoin="round"/>
</g>
<defs>
<clipPath id="clip0_796_2432">
<rect width="28" height="28" fill="white"/>
</clipPath>
</defs>
</svg>
