<svg width="16" height="14" viewBox="0 0 16 14" fill="none" xmlns="http://www.w3.org/2000/svg">
<path d="M5.99999 13.6668H12C12.5533 13.6668 13.0267 13.3335 13.2267 12.8535L15.24 8.1535C15.3 8.00016 15.3333 7.84016 15.3333 7.66683V6.3335C15.3333 5.60016 14.7333 5.00016 14 5.00016H9.79332L10.4267 1.9535L10.4467 1.74016C10.4467 1.46683 10.3333 1.2135 10.1533 1.0335L9.44666 0.333496L5.05332 4.72683C4.81332 4.96683 4.66666 5.30016 4.66666 5.66683V12.3335C4.66666 13.0668 5.26666 13.6668 5.99999 13.6668ZM5.99999 5.66683L8.89332 2.7735L7.99999 6.3335H14V7.66683L12 12.3335H5.99999V5.66683ZM0.666656 5.66683H3.33332V13.6668H0.666656V5.66683Z" fill="#363C4F"/>
</svg>
