<svg width="21" height="21" viewBox="0 0 21 21" fill="none" xmlns="http://www.w3.org/2000/svg">
<path d="M10.3448 20.7585C10.0772 20.7585 9.85294 20.6681 9.67218 20.4874C9.49079 20.306 9.40009 20.0814 9.40009 19.8138V18.869C7.4319 18.6486 5.74335 17.8339 4.33444 16.425C2.92489 15.0155 2.1099 13.3266 1.88947 11.3584H0.944733C0.677059 11.3584 0.452527 11.2677 0.271138 11.0863C0.0903795 10.9056 0 10.6813 0 10.4137C0 10.146 0.0903795 9.92147 0.271138 9.74008C0.452527 9.55932 0.677059 9.46894 0.944733 9.46894H1.88947C2.1099 7.50075 2.92489 5.81188 4.33444 4.40234C5.74335 2.99343 7.4319 2.17875 9.40009 1.95831V1.01358C9.40009 0.745906 9.49079 0.521375 9.67218 0.339986C9.85294 0.159227 10.0772 0.0688477 10.3448 0.0688477C10.6125 0.0688477 10.837 0.159227 11.0184 0.339986C11.1992 0.521375 11.2896 0.745906 11.2896 1.01358V1.95831C13.2578 2.17875 14.9466 2.99343 16.3562 4.40234C17.7651 5.81188 18.5798 7.50075 18.8002 9.46894H19.7449C20.0126 9.46894 20.2371 9.55932 20.4185 9.74008C20.5993 9.92147 20.6897 10.146 20.6897 10.4137C20.6897 10.6813 20.5993 10.9056 20.4185 11.0863C20.2371 11.2677 20.0126 11.3584 19.7449 11.3584H18.8002C18.5798 13.3266 17.7651 15.0155 16.3562 16.425C14.9466 17.8339 13.2578 18.6486 11.2896 18.869V19.8138C11.2896 20.0814 11.1992 20.306 11.0184 20.4874C10.837 20.6681 10.6125 20.7585 10.3448 20.7585ZM10.3448 17.0268C12.1713 17.0268 13.7301 16.3812 15.0213 15.0901C16.3124 13.799 16.958 12.2402 16.958 10.4137C16.958 8.58719 16.3124 7.02838 15.0213 5.73725C13.7301 4.44611 12.1713 3.80054 10.3448 3.80054C8.51834 3.80054 6.95953 4.44611 5.6684 5.73725C4.37726 7.02838 3.7317 8.58719 3.7317 10.4137C3.7317 12.2402 4.37726 13.799 5.6684 15.0901C6.95953 16.3812 8.51834 17.0268 10.3448 17.0268ZM10.3448 14.1926C9.30562 14.1926 8.416 13.8226 7.67596 13.0825C6.93591 12.3425 6.56589 11.4529 6.56589 10.4137C6.56589 9.37447 6.93591 8.48484 7.67596 7.7448C8.416 7.00476 9.30562 6.63474 10.3448 6.63474C11.384 6.63474 12.2737 7.00476 13.0137 7.7448C13.7537 8.48484 14.1238 9.37447 14.1238 10.4137C14.1238 11.4529 13.7537 12.3425 13.0137 13.0825C12.2737 13.8226 11.384 14.1926 10.3448 14.1926ZM10.3448 12.3031C10.8644 12.3031 11.3094 12.118 11.6797 11.7476C12.0494 11.3779 12.2343 10.9333 12.2343 10.4137C12.2343 9.89407 12.0494 9.4491 11.6797 9.07877C11.3094 8.70906 10.8644 8.52421 10.3448 8.52421C9.82522 8.52421 9.38057 8.70906 9.01086 9.07877C8.64053 9.4491 8.45536 9.89407 8.45536 10.4137C8.45536 10.9333 8.64053 11.3779 9.01086 11.7476C9.38057 12.118 9.82522 12.3031 10.3448 12.3031Z" fill="black"/>
</svg>
