<svg width="21" height="21" viewBox="0 0 21 21" fill="none" xmlns="http://www.w3.org/2000/svg">
<g clip-path="url(#clip0_532_999)">
<path d="M10.3693 12.1092C11.8011 12.1092 12.9617 10.9485 12.9617 9.51675C12.9617 8.08499 11.8011 6.92432 10.3693 6.92432C8.93753 6.92432 7.77686 8.08499 7.77686 9.51675C7.77686 10.9485 8.93753 12.1092 10.3693 12.1092Z" stroke="#FF4168" stroke-width="1.29622" stroke-linecap="round" stroke-linejoin="round"/>
<path d="M15.2582 14.4049L11.5916 18.0715C11.2675 18.3952 10.8282 18.5771 10.3701 18.5771C9.91207 18.5771 9.47274 18.3952 9.14867 18.0715L5.48124 14.4049C4.51445 13.4381 3.85607 12.2063 3.58935 10.8652C3.32264 9.52423 3.45956 8.13424 3.98281 6.87105C4.50607 5.60785 5.39214 4.52818 6.529 3.76857C7.66586 3.00896 9.00243 2.60352 10.3697 2.60352C11.737 2.60352 13.0736 3.00896 14.2104 3.76857C15.3473 4.52818 16.2334 5.60785 16.7566 6.87105C17.2799 8.13424 17.4168 9.52423 17.1501 10.8652C16.8834 12.2063 16.225 13.4381 15.2582 14.4049Z" stroke="#FF4168" stroke-width="1.29622" stroke-linecap="round" stroke-linejoin="round"/>
</g>
<defs>
<clipPath id="clip0_532_999">
<rect width="20.7395" height="20.7395" fill="white" transform="translate(0 0.0107422)"/>
</clipPath>
</defs>
</svg>
