<svg width="17" height="18" viewBox="0 0 17 18" fill="none" xmlns="http://www.w3.org/2000/svg">
<path d="M12.7947 6.86328H4.24661C3.41722 6.86328 2.74487 7.53563 2.74487 8.36501V14.3059C2.74487 15.1353 3.41722 15.8076 4.24661 15.8076H12.7947C13.624 15.8076 14.2964 15.1353 14.2964 14.3059V8.36501C14.2964 7.53563 13.624 6.86328 12.7947 6.86328Z" fill="#534F4F"/>
<path d="M4.82178 6.86296V5.95566C4.82178 4.97286 5.21219 4.03031 5.90714 3.33536C6.60209 2.64042 7.54464 2.25 8.52744 2.25C9.51024 2.25 10.4528 2.64042 11.1477 3.33536C11.8427 4.03031 12.2331 4.97286 12.2331 5.95566V6.86296" stroke="#534F4F" stroke-width="0.834296" stroke-linecap="round" stroke-linejoin="round"/>
<path d="M8.52484 9.47317C8.27653 9.47413 8.03541 9.55663 7.83856 9.70796C7.6417 9.8593 7.49999 10.0711 7.43522 10.3108C7.37046 10.5505 7.38622 10.8049 7.48008 11.0348C7.57394 11.2647 7.7407 11.4574 7.95474 11.5832V13.1997H9.10885V11.5832C9.27818 11.4831 9.41872 11.3408 9.51679 11.1702C9.61487 10.9997 9.66714 10.8066 9.66852 10.6099C9.66852 10.46 9.63889 10.3116 9.58133 10.1733C9.52377 10.0349 9.43942 9.90928 9.33312 9.80364C9.22683 9.69799 9.1007 9.61441 8.96198 9.55769C8.82326 9.50097 8.6747 9.47225 8.52484 9.47317Z" fill="#E0E0E0"/>
</svg>
