<svg width="25" height="25" viewBox="0 0 25 25" fill="none" xmlns="http://www.w3.org/2000/svg">
<path d="M14.5655 8.32324V6.24243C14.5655 5.69056 14.3463 5.1613 13.9561 4.77108C13.5659 4.38085 13.0366 4.16162 12.4847 4.16162H5.2019C4.65004 4.16162 4.12078 4.38085 3.73055 4.77108C3.34032 5.1613 3.12109 5.69056 3.12109 6.24243V18.7273C3.12109 19.2791 3.34032 19.8084 3.73055 20.1986C4.12078 20.5889 4.65004 20.8081 5.2019 20.8081H12.4847C13.0366 20.8081 13.5659 20.5889 13.9561 20.1986C14.3463 19.8084 14.5655 19.2791 14.5655 18.7273V16.6465" stroke="#FF4168" stroke-width="1.56061" stroke-linecap="round" stroke-linejoin="round"/>
<path d="M7.28271 12.485H21.8484M21.8484 12.485L18.7272 9.36377M21.8484 12.485L18.7272 15.6062" stroke="#FF4168" stroke-width="1.56061" stroke-linecap="round" stroke-linejoin="round"/>
</svg>
