<svg width="14" height="13" viewBox="0 0 14 13" fill="none" xmlns="http://www.w3.org/2000/svg">
<path d="M11.9999 7.04795L6.99987 12L1.99988 7.04795C1.67008 6.72703 1.4103 6.3413 1.23691 5.91505C1.06351 5.48879 0.98025 5.03126 0.992367 4.57124C1.00448 4.11123 1.11172 3.65871 1.30731 3.24218C1.50291 2.82565 1.78263 2.45412 2.12887 2.15101C2.4751 1.84789 2.88035 1.61975 3.31908 1.48094C3.75782 1.34214 4.22055 1.29568 4.67812 1.34449C5.1357 1.3933 5.57821 1.53633 5.97779 1.76456C6.37738 1.99279 6.72537 2.30129 6.99987 2.67062C7.27556 2.30397 7.62397 1.99817 8.02328 1.77236C8.42258 1.54655 8.8642 1.40559 9.3205 1.3583C9.77679 1.31102 10.2379 1.35842 10.6751 1.49755C11.1122 1.63668 11.5159 1.86454 11.8609 2.16686C12.2059 2.46919 12.4848 2.83948 12.6802 3.25455C12.8755 3.66962 12.983 4.12054 12.9961 4.57909C13.0091 5.03764 12.9274 5.49395 12.756 5.91946C12.5845 6.34496 12.3271 6.7305 11.9999 7.05196" stroke="white" stroke-linecap="round" stroke-linejoin="round"/>
</svg>
