<svg width="19" height="19" viewBox="0 0 19 19" fill="none" xmlns="http://www.w3.org/2000/svg">
<path d="M14.0195 0.432617H5.01953C2.53553 0.432617 0.519531 2.44062 0.519531 4.91686V10.3016V11.202C0.519531 13.6782 2.53553 15.6862 5.01953 15.6862H6.36953C6.61253 15.6862 6.93653 15.8483 7.08953 16.0464L8.43953 17.8383C9.03353 18.6307 10.0055 18.6307 10.5995 17.8383L11.9495 16.0464C12.1205 15.8213 12.3905 15.6862 12.6695 15.6862H14.0195C16.5035 15.6862 18.5195 13.6782 18.5195 11.202V4.91686C18.5195 2.44062 16.5035 0.432617 14.0195 0.432617ZM5.91953 9.43712C5.41553 9.43712 5.01953 9.03192 5.01953 8.53667C5.01953 8.04142 5.42453 7.63622 5.91953 7.63622C6.41453 7.63622 6.81953 8.04142 6.81953 8.53667C6.81953 9.03192 6.42353 9.43712 5.91953 9.43712ZM9.51953 9.43712C9.01553 9.43712 8.61953 9.03192 8.61953 8.53667C8.61953 8.04142 9.02453 7.63622 9.51953 7.63622C10.0145 7.63622 10.4195 8.04142 10.4195 8.53667C10.4195 9.03192 10.0235 9.43712 9.51953 9.43712ZM13.1195 9.43712C12.6155 9.43712 12.2195 9.03192 12.2195 8.53667C12.2195 8.04142 12.6245 7.63622 13.1195 7.63622C13.6145 7.63622 14.0195 8.04142 14.0195 8.53667C14.0195 9.03192 13.6235 9.43712 13.1195 9.43712Z" fill="#FF4168"/>
</svg>
