<svg width="18" height="15" viewBox="0 0 18 15" fill="none" xmlns="http://www.w3.org/2000/svg">
<path d="M1.5 13.9999H16.5M15 7.58905V14L10.5 13.9999V10.9999C10.5 10.1715 9.82843 9.49993 9 9.49993C8.17157 9.49993 7.5 10.1715 7.5 10.9999V13.9999H3V7.58905C3 7.18829 3 6.9879 3.04873 6.80142C3.09191 6.63616 3.16298 6.47944 3.25891 6.33812C3.36716 6.17865 3.51798 6.04674 3.81958 5.78284L7.41958 2.63284C7.97954 2.14288 8.25937 1.89793 8.57446 1.80474C8.85211 1.72264 9.14789 1.72264 9.42554 1.80474C9.74063 1.89793 10.0206 2.14288 10.5806 2.63284L14.1806 5.78284C14.4822 6.04674 14.6328 6.17865 14.7411 6.33812C14.837 6.47944 14.9081 6.63616 14.9513 6.80142C15 6.9879 15 7.18829 15 7.58905Z" stroke="url(#paint0_linear_970_263)" stroke-width="2" stroke-linecap="round" stroke-linejoin="round"/>
<defs>
<linearGradient id="paint0_linear_970_263" x1="9" y1="1.74316" x2="9" y2="14" gradientUnits="userSpaceOnUse">
<stop stop-color="#FD654D"/>
<stop offset="0.0833333" stop-color="#FD674C"/>
<stop offset="0.145833" stop-color="#FC674B"/>
<stop offset="0.890625" stop-color="#F38A2B"/>
<stop offset="1" stop-color="#F38B2A"/>
</linearGradient>
</defs>
</svg>
