<svg width="20" height="20" viewBox="0 0 20 20" fill="none" xmlns="http://www.w3.org/2000/svg">
<path d="M3.33333 5.65885L10.1905 10.4089L16.6666 5.65885M17.5 7.40048V13.4171C17.5 14.3039 17.5002 14.7474 17.3185 15.086C17.1587 15.384 16.9034 15.6261 16.5898 15.7779C16.2333 15.9505 15.7669 15.9505 14.8335 15.9505H5.16683C4.23341 15.9505 3.76635 15.9505 3.40983 15.7779C3.09623 15.6261 2.84144 15.384 2.68166 15.086C2.5 14.7474 2.5 14.3039 2.5 13.4171V7.40048C2.5 6.51373 2.5 6.07041 2.68166 5.73172C2.84144 5.4338 3.09623 5.19156 3.40983 5.03976C3.76635 4.86719 4.23341 4.86719 5.16683 4.86719H14.8335C15.7669 4.86719 16.2333 4.86719 16.5898 5.03976C16.9034 5.19156 17.1587 5.4338 17.3185 5.73172C17.5002 6.07041 17.5 6.51373 17.5 7.40048Z" stroke="#534F4F" stroke-opacity="0.4" stroke-linecap="round" stroke-linejoin="round"/>
</svg>
