<svg width="40" height="40" viewBox="0 0 40 40" fill="none" xmlns="http://www.w3.org/2000/svg">
<g clip-path="url(#clip0_2426_2366)">
<path d="M31.667 15H15.0003C13.1594 15 11.667 16.4924 11.667 18.3333V28.3333C11.667 30.1743 13.1594 31.6667 15.0003 31.6667H31.667C33.5079 31.6667 35.0003 30.1743 35.0003 28.3333V18.3333C35.0003 16.4924 33.5079 15 31.667 15Z" stroke="#FF4168" stroke-width="2.5" stroke-linecap="round" stroke-linejoin="round"/>
<path d="M23.3333 26.6667C25.1743 26.6667 26.6667 25.1743 26.6667 23.3333C26.6667 21.4924 25.1743 20 23.3333 20C21.4924 20 20 21.4924 20 23.3333C20 25.1743 21.4924 26.6667 23.3333 26.6667Z" stroke="#FF4168" stroke-width="2.5" stroke-linecap="round" stroke-linejoin="round"/>
<path d="M28.3333 15.0002V11.6668C28.3333 10.7828 27.9821 9.93493 27.357 9.30981C26.7319 8.68469 25.8841 8.3335 25 8.3335H8.33333C7.44928 8.3335 6.60143 8.68469 5.97631 9.30981C5.35119 9.93493 5 10.7828 5 11.6668V21.6668C5 22.5509 5.35119 23.3987 5.97631 24.0239C6.60143 24.649 7.44928 25.0002 8.33333 25.0002H11.6667" stroke="#FF4168" stroke-width="2.5" stroke-linecap="round" stroke-linejoin="round"/>
</g>
<defs>
<clipPath id="clip0_2426_2366">
<rect width="40" height="40" fill="white"/>
</clipPath>
</defs>
</svg>
