<svg width="16" height="16" viewBox="0 0 16 16" fill="none" xmlns="http://www.w3.org/2000/svg">
<path d="M5.86319 1.63421C5.62275 1.03309 5.04054 0.638916 4.39311 0.638916H2.21503C1.3866 0.638916 0.715027 1.31052 0.715027 2.13895C0.715027 9.18058 6.42356 14.8889 13.4652 14.8889C14.2936 14.8889 14.965 14.2174 14.965 13.389L14.9649 11.2109C14.9649 10.5634 14.5707 9.98127 13.9696 9.74081L11.8832 8.90619C11.3432 8.69021 10.7284 8.78756 10.2817 9.15987L9.74246 9.60907C9.11336 10.1333 8.18834 10.0914 7.60929 9.51235L6.09152 7.99469C5.51247 7.41564 5.47075 6.49055 5.995 5.86145L6.44417 5.32239C6.81648 4.87562 6.91379 4.26074 6.69781 3.72077L5.86319 1.63421Z" stroke="white" stroke-linecap="round" stroke-linejoin="round"/>
</svg>
