<svg width="19" height="19" viewBox="0 0 19 19" fill="none" xmlns="http://www.w3.org/2000/svg">
<path d="M8.67673 12.1051L7.00923 13.7726C6.65771 14.1241 6.09887 14.1241 5.73833 13.7816C5.63919 13.6824 5.54004 13.5923 5.44089 13.4931C4.5125 12.5557 3.67425 11.5733 2.92613 10.5457C2.18702 9.5182 1.59214 8.49067 1.15949 7.47214C0.735855 6.44461 0.519531 5.46214 0.519531 4.52474C0.519531 3.91182 0.627693 3.32594 0.844016 2.78513C1.06034 2.23531 1.40285 1.73056 1.88057 1.27988C2.45743 0.712035 3.08837 0.432617 3.75537 0.432617C4.00775 0.432617 4.26012 0.486698 4.48546 0.59486C4.71981 0.703022 4.92712 0.865264 5.08936 1.09961L7.18049 4.04702C7.34273 4.27236 7.45991 4.47967 7.54103 4.67796C7.62215 4.86725 7.66722 5.05653 7.66722 5.22779C7.66722 5.44411 7.60412 5.66043 7.47794 5.86774C7.36076 6.07505 7.1895 6.29138 6.97318 6.5077L6.28816 7.21977C6.18901 7.31891 6.14394 7.43609 6.14394 7.5803C6.14394 7.65241 6.15295 7.71551 6.17098 7.78761C6.19802 7.85972 6.22506 7.9138 6.24309 7.96788C6.40533 8.26533 6.68475 8.65291 7.08134 9.12161C7.48695 9.59031 7.9196 10.068 8.3883 10.5457C8.47843 10.6359 8.57758 10.726 8.66771 10.8161C9.02825 11.1677 9.03727 11.7445 8.67673 12.1051Z" fill="#FF4168"/>
<path d="M18.5195 15.1514C18.5195 15.4038 18.4745 15.6652 18.3843 15.9176C18.3573 15.9897 18.3303 16.0618 18.2942 16.1339C18.141 16.4584 17.9427 16.7649 17.6813 17.0533C17.2396 17.54 16.7529 17.8915 16.2031 18.1169C16.1941 18.1169 16.1851 18.1259 16.176 18.1259C15.6442 18.3422 15.0674 18.4594 14.4455 18.4594C13.5261 18.4594 12.5436 18.2431 11.5071 17.8014C10.4705 17.3598 9.43396 16.7649 8.40642 16.0167C8.0549 15.7554 7.70337 15.494 7.36987 15.2145L10.3173 12.2671C10.5697 12.4564 10.795 12.6006 10.9843 12.6998C11.0293 12.7178 11.0834 12.7449 11.1465 12.7719C11.2186 12.7989 11.2907 12.8079 11.3719 12.8079C11.5251 12.8079 11.6423 12.7539 11.7414 12.6547L12.4264 11.9787C12.6518 11.7534 12.8681 11.5821 13.0754 11.474C13.2827 11.3478 13.49 11.2847 13.7154 11.2847C13.8866 11.2847 14.0669 11.3207 14.2652 11.4018C14.4635 11.483 14.6708 11.6001 14.8961 11.7534L17.8796 13.8715C18.1139 14.0338 18.2762 14.2231 18.3753 14.4484C18.4655 14.6737 18.5195 14.8991 18.5195 15.1514Z" fill="#FF4168"/>
</svg>
