<svg width="49" height="48" viewBox="0 0 49 48" fill="none" xmlns="http://www.w3.org/2000/svg">
<g clip-path="url(#clip0_2517_29654)">
<path d="M8.5 22H40.5C41.0304 22 41.5391 22.2107 41.9142 22.5858C42.2893 22.9609 42.5 23.4696 42.5 24V25C42.5 28 37.466 36.146 34.5 38V40C34.5 40.5304 34.2893 41.0391 33.9142 41.4142C33.5391 41.7893 33.0304 42 32.5 42H16.5C15.9696 42 15.4609 41.7893 15.0858 41.4142C14.7107 41.0391 14.5 40.5304 14.5 40V38C11.126 35.892 6.5 28 6.5 25V24C6.5 23.4696 6.71071 22.9609 7.08579 22.5858C7.46086 22.2107 7.96957 22 8.5 22Z" stroke="white" stroke-width="1.5" stroke-linecap="round" stroke-linejoin="round"/>
<path d="M24.4991 8C23.8661 8.45434 23.3532 9.05594 23.0048 9.75285C22.6563 10.4498 22.4828 11.221 22.4991 12C22.4828 12.779 22.6563 13.5502 23.0048 14.2472C23.3532 14.9441 23.8661 15.5457 24.4991 16" stroke="white" stroke-width="1.5" stroke-linecap="round" stroke-linejoin="round"/>
<path d="M32.4991 8C31.8661 8.45434 31.3532 9.05594 31.0048 9.75285C30.6563 10.4498 30.4828 11.221 30.4991 12C30.4828 12.779 30.6563 13.5502 31.0048 14.2472C31.3532 14.9441 31.8661 15.5457 32.4991 16" stroke="white" stroke-width="1.5" stroke-linecap="round" stroke-linejoin="round"/>
<path d="M16.4991 8C15.8661 8.45434 15.3532 9.05594 15.0048 9.75285C14.6563 10.4498 14.4828 11.221 14.4991 12C14.4828 12.779 14.6563 13.5502 15.0048 14.2472C15.3532 14.9441 15.8661 15.5457 16.4991 16" stroke="white" stroke-width="1.5" stroke-linecap="round" stroke-linejoin="round"/>
</g>
<defs>
<clipPath id="clip0_2517_29654">
<rect width="48" height="48" fill="white" transform="translate(0.5)"/>
</clipPath>
</defs>
</svg>
