<svg width="21" height="21" viewBox="0 0 21 21" fill="none" xmlns="http://www.w3.org/2000/svg">
<g clip-path="url(#clip0_427_13423)">
<path d="M2.59253 18.1484H18.1475" stroke="white" stroke-linecap="round" stroke-linejoin="round"/>
<path d="M2.59253 6.04846V6.91263C2.59253 7.6002 2.86567 8.25962 3.35186 8.7458C3.83804 9.23199 4.49746 9.50513 5.18503 9.50513C5.8726 9.50513 6.53202 9.23199 7.0182 8.7458C7.50439 8.25962 7.77753 7.6002 7.77753 6.91263M2.59253 6.04846H18.1475M2.59253 6.04846L4.32086 2.5918H16.4192L18.1475 6.04846M7.77753 6.91263V6.04846M7.77753 6.91263C7.77753 7.6002 8.05067 8.25962 8.53685 8.7458C9.02304 9.23199 9.68246 9.50513 10.37 9.50513C11.0576 9.50513 11.717 9.23199 12.2032 8.7458C12.6894 8.25962 12.9625 7.6002 12.9625 6.91263M12.9625 6.91263V6.04846M12.9625 6.91263C12.9625 7.6002 13.2357 8.25962 13.7219 8.7458C14.208 9.23199 14.8675 9.50513 15.555 9.50513C16.2426 9.50513 16.902 9.23199 17.3882 8.7458C17.8744 8.25962 18.1475 7.6002 18.1475 6.91263V6.04846" stroke="white" stroke-linecap="round" stroke-linejoin="round"/>
<path d="M4.3208 18.1482V9.37695" stroke="white" stroke-linecap="round" stroke-linejoin="round"/>
<path d="M16.4192 18.1482V9.37695" stroke="white" stroke-linecap="round" stroke-linejoin="round"/>
<path d="M7.77747 18.1479V14.6912C7.77747 14.2328 7.95956 13.7932 8.28368 13.4691C8.60781 13.145 9.04742 12.9629 9.5058 12.9629H11.2341C11.6925 12.9629 12.1321 13.145 12.4562 13.4691C12.7804 13.7932 12.9625 14.2328 12.9625 14.6912V18.1479" stroke="white" stroke-linecap="round" stroke-linejoin="round"/>
</g>
<defs>
<clipPath id="clip0_427_13423">
<rect width="20.74" height="20.74" fill="white"/>
</clipPath>
</defs>
</svg>
