<svg width="21" height="21" viewBox="0 0 21 21" fill="none" xmlns="http://www.w3.org/2000/svg">
<path d="M5.18488 10.3702C6.13941 10.3702 6.91321 9.59644 6.91321 8.64191C6.91321 7.68738 6.13941 6.91357 5.18488 6.91357C4.23034 6.91357 3.45654 7.68738 3.45654 8.64191C3.45654 9.59644 4.23034 10.3702 5.18488 10.3702Z" stroke="#FF4168" stroke-width="1.25" stroke-linecap="round" stroke-linejoin="round"/>
<path d="M5.18506 3.45654V6.91321" stroke="#FF4168" stroke-width="1.25" stroke-linecap="round" stroke-linejoin="round"/>
<path d="M5.18506 10.3701V17.2835" stroke="#FF4168" stroke-width="1.25" stroke-linecap="round" stroke-linejoin="round"/>
<path d="M10.3699 15.5548C11.3245 15.5548 12.0983 14.781 12.0983 13.8265C12.0983 12.8719 11.3245 12.0981 10.3699 12.0981C9.4154 12.0981 8.6416 12.8719 8.6416 13.8265C8.6416 14.781 9.4154 15.5548 10.3699 15.5548Z" stroke="#FF4168" stroke-width="1.25" stroke-linecap="round" stroke-linejoin="round"/>
<path d="M10.3701 3.45654V12.0982" stroke="#FF4168" stroke-width="1.25" stroke-linecap="round" stroke-linejoin="round"/>
<path d="M10.3701 15.5552V17.2835" stroke="#FF4168" stroke-width="1.25" stroke-linecap="round" stroke-linejoin="round"/>
<path d="M15.555 7.77747C16.5095 7.77747 17.2833 7.00367 17.2833 6.04913C17.2833 5.0946 16.5095 4.3208 15.555 4.3208C14.6005 4.3208 13.8267 5.0946 13.8267 6.04913C13.8267 7.00367 14.6005 7.77747 15.555 7.77747Z" stroke="#FF4168" stroke-width="1.25" stroke-linecap="round" stroke-linejoin="round"/>
<path d="M15.5552 3.45654V4.32071" stroke="#FF4168" stroke-width="1.25" stroke-linecap="round" stroke-linejoin="round"/>
<path d="M15.5552 7.77734V17.2832" stroke="#FF4168" stroke-width="1.25" stroke-linecap="round" stroke-linejoin="round"/>
</svg>
