<svg width="23" height="23" viewBox="0 0 23 23" fill="none" xmlns="http://www.w3.org/2000/svg">
<g clip-path="url(#clip0_1663_6032)">
<path d="M5.75 14.375C7.33782 14.375 8.625 13.0878 8.625 11.5C8.625 9.91218 7.33782 8.625 5.75 8.625C4.16218 8.625 2.875 9.91218 2.875 11.5C2.875 13.0878 4.16218 14.375 5.75 14.375Z" stroke="#FD0061" stroke-width="0.958333" stroke-linecap="round" stroke-linejoin="round"/>
<path d="M17.25 8.625C18.8378 8.625 20.125 7.33782 20.125 5.75C20.125 4.16218 18.8378 2.875 17.25 2.875C15.6622 2.875 14.375 4.16218 14.375 5.75C14.375 7.33782 15.6622 8.625 17.25 8.625Z" stroke="#FD0061" stroke-width="0.958333" stroke-linecap="round" stroke-linejoin="round"/>
<path d="M17.25 20.125C18.8378 20.125 20.125 18.8378 20.125 17.25C20.125 15.6622 18.8378 14.375 17.25 14.375C15.6622 14.375 14.375 15.6622 14.375 17.25C14.375 18.8378 15.6622 20.125 17.25 20.125Z" stroke="#FD0061" stroke-width="0.958333" stroke-linecap="round" stroke-linejoin="round"/>
<path d="M8.33789 10.2542L14.6629 6.99585" stroke="#FD0061" stroke-width="0.958333" stroke-linecap="round" stroke-linejoin="round"/>
<path d="M8.33789 12.7458L14.6629 16.0042" stroke="#FD0061" stroke-width="0.958333" stroke-linecap="round" stroke-linejoin="round"/>
</g>
<defs>
<clipPath id="clip0_1663_6032">
<rect width="23" height="23" fill="white"/>
</clipPath>
</defs>
</svg>
