<svg width="39" height="32" viewBox="0 0 39 32" fill="none" xmlns="http://www.w3.org/2000/svg">
<path d="M5.5 2H33.5C34.5609 2 35.5783 2.42143 36.3284 3.17157C37.0786 3.92172 37.5 4.93913 37.5 6V12C36.4391 12 35.4217 12.4214 34.6716 13.1716C33.9214 13.9217 33.5 14.9391 33.5 16C33.5 17.0609 33.9214 18.0783 34.6716 18.8284C35.4217 19.5786 36.4391 20 37.5 20V26C37.5 27.0609 37.0786 28.0783 36.3284 28.8284C35.5783 29.5786 34.5609 30 33.5 30H5.5C4.43913 30 3.42172 29.5786 2.67157 28.8284C1.92143 28.0783 1.5 27.0609 1.5 26V20C2.56087 20 3.57828 19.5786 4.32843 18.8284C5.07857 18.0783 5.5 17.0609 5.5 16C5.5 14.9391 5.07857 13.9217 4.32843 13.1716C3.57828 12.4214 2.56087 12 1.5 12V6C1.5 4.93913 1.92143 3.92172 2.67157 3.17157C3.42172 2.42143 4.43913 2 5.5 2Z" stroke="#FFE8D2" stroke-width="2.5" stroke-linecap="round" stroke-linejoin="round"/>
</svg>
