<svg width="18" height="16" viewBox="0 0 18 16" fill="none" xmlns="http://www.w3.org/2000/svg">
<path d="M16.987 7.84633C16.3517 6.24313 15.2438 4.85419 13.7999 3.85065L16.4642 1.27625L15.6799 0.52002L0.890205 14.7811L1.67447 15.5373L4.51115 12.8074C5.77733 13.519 7.21186 13.905 8.67719 13.9283C10.4902 13.8626 12.2434 13.2861 13.7203 12.27C15.1971 11.2539 16.3328 9.84275 16.987 8.21103C17.0312 8.0932 17.0312 7.96416 16.987 7.84633ZM8.67719 11.5148C7.9105 11.5145 7.16403 11.2777 6.54689 10.8391L7.56476 9.8683C7.98681 10.0913 8.47247 10.1763 8.94887 10.1106C9.42527 10.0449 9.86674 9.83198 10.207 9.50385C10.5473 9.17572 10.7681 8.75003 10.8363 8.29066C10.9044 7.83128 10.8162 7.36298 10.585 6.95601L11.5917 5.98525C11.9836 6.5042 12.219 7.11754 12.2719 7.75744C12.3248 8.39734 12.1931 9.03888 11.8915 9.61114C11.5899 10.1834 11.13 10.6641 10.5627 11.0001C9.99548 11.336 9.34291 11.5142 8.67719 11.5148ZM2.29742 11.1448L5.07849 8.46311C5.06402 8.31875 5.05845 8.17368 5.0618 8.02868C5.06327 7.10453 5.44465 6.21863 6.12235 5.56516C6.80005 4.91168 7.71878 4.54393 8.67719 4.54252C8.82407 4.54327 8.97078 4.55222 9.11659 4.56933L11.2191 2.54736C10.4008 2.27635 9.54236 2.13507 8.67719 2.12902C6.86422 2.19476 5.11096 2.77131 3.63412 3.78741C2.15727 4.8035 1.02156 6.21461 0.367365 7.84633C0.323183 7.96416 0.323183 8.0932 0.367365 8.21103C0.794551 9.30657 1.45161 10.3053 2.29742 11.1448Z" fill="#534F4F"/>
</svg>
