<svg width="18" height="16" viewBox="0 0 18 16" fill="none" xmlns="http://www.w3.org/2000/svg">
<path d="M16.9869 8.23524C16.3515 6.63205 15.2437 5.24311 13.7998 4.23956L16.464 1.66517L15.6798 0.908936L0.890083 15.17L1.67434 15.9263L4.51103 13.1963C5.77721 13.9079 7.21173 14.2939 8.67706 14.3173C10.49 14.2515 12.2433 13.675 13.7201 12.6589C15.197 11.6428 16.3327 10.2317 16.9869 8.59995C17.0311 8.48211 17.0311 8.35308 16.9869 8.23524ZM8.67706 11.9038C7.91038 11.9034 7.16391 11.6666 6.54677 11.228L7.56464 10.2572C7.98669 10.4802 8.47235 10.5652 8.94875 10.4995C9.42515 10.4338 9.86662 10.2209 10.2069 9.89277C10.5472 9.56463 10.768 9.13895 10.8361 8.67957C10.9043 8.2202 10.8161 7.7519 10.5849 7.34493L11.5916 6.37417C11.9835 6.89312 12.2188 7.50645 12.2718 8.14635C12.3247 8.78625 12.193 9.42779 11.8914 10.0001C11.5898 10.5723 11.1299 11.053 10.5626 11.389C9.99536 11.7249 9.34279 11.9031 8.67706 11.9038ZM2.2973 11.5337L5.07837 8.85203C5.0639 8.70766 5.05833 8.5626 5.06168 8.4176C5.06315 7.49344 5.44453 6.60755 6.12223 5.95407C6.79992 5.3006 7.71866 4.93285 8.67706 4.93143C8.82395 4.93218 8.97066 4.94114 9.11647 4.95825L11.219 2.93627C10.4007 2.66527 9.54224 2.52399 8.67706 2.51793C6.8641 2.58367 5.11084 3.16022 3.63399 4.17632C2.15714 5.19242 1.02144 6.60353 0.367243 8.23524C0.323061 8.35308 0.323061 8.48211 0.367243 8.59995C0.794429 9.69549 1.45148 10.6942 2.2973 11.5337Z" fill="#534F4F" fill-opacity="0.45"/>
</svg>
