<svg width="32" height="32" viewBox="0 0 32 32" fill="none" xmlns="http://www.w3.org/2000/svg">
<g clip-path="url(#clip0_1223_936)">
<path d="M21.985 10.3449V6.46513C21.985 6.12214 21.8487 5.79319 21.6062 5.55066C21.3636 5.30813 21.0347 5.17188 20.6917 5.17188H7.75918C7.07319 5.17188 6.4153 5.44438 5.93024 5.92945C5.44517 6.41451 5.17267 7.0724 5.17267 7.75838M5.17267 7.75838C5.17267 8.44437 5.44517 9.10226 5.93024 9.58732C6.4153 10.0724 7.07319 10.3449 7.75918 10.3449H23.2782C23.6212 10.3449 23.9502 10.4811 24.1927 10.7237C24.4352 10.9662 24.5715 11.2952 24.5715 11.6381V15.5179M5.17267 7.75838V23.2774C5.17267 23.9634 5.44517 24.6213 5.93024 25.1064C6.4153 25.5914 7.07319 25.8639 7.75918 25.8639H23.2782C23.6212 25.8639 23.9502 25.7277 24.1927 25.4852C24.4352 25.2426 24.5715 24.9137 24.5715 24.5707V20.6909" stroke="white" stroke-width="1.93988" stroke-linecap="round" stroke-linejoin="round"/>
<path d="M25.8661 15.5195V20.6925H20.6931C20.0071 20.6925 19.3492 20.42 18.8641 19.935C18.3791 19.4499 18.1066 18.792 18.1066 18.106C18.1066 17.4201 18.3791 16.7622 18.8641 16.2771C19.3492 15.792 20.0071 15.5195 20.6931 15.5195H25.8661Z" stroke="white" stroke-width="1.93988" stroke-linecap="round" stroke-linejoin="round"/>
</g>
<defs>
<clipPath id="clip0_1223_936">
<rect width="31.0381" height="31.0381" fill="white"/>
</clipPath>
</defs>
</svg>
